<svg width="52" height="27" viewBox="0 0 52 27" fill="none" xmlns="http://www.w3.org/2000/svg">
<path d="M9.6128 8.76847L50.8019 9.73146C52.3965 9.76565 52.4023 12.2102 50.8019 12.176L18.6722 11.4238L9.6128 11.2244C8.01816 11.1731 8.01238 8.72858 9.6128 8.76847ZM0.611171 8.6488C6.28485 6.01624 11.8584 3.18804 17.3318 0.164196C18.7184 -0.60506 19.9722 1.53746 18.5798 2.27822C13.6225 5.02096 8.58437 7.59654 3.46535 10.005C8.63125 14.5485 13.2807 19.6327 17.3318 25.1679C17.4948 25.4489 17.5395 25.7819 17.4564 26.0951C17.3732 26.4084 17.1687 26.677 16.8869 26.8431C16.6018 26.9993 16.2665 27.0408 15.9511 26.959C15.6357 26.8773 15.3645 26.6786 15.194 26.4044C10.8999 20.5665 5.91953 15.251 0.356956 10.5691C0.224524 10.4359 0.124517 10.2748 0.0644982 10.0979C0.00447921 9.92098 -0.0139823 9.73294 0.010505 9.54797C0.0349923 9.363 0.101792 9.18594 0.205852 9.03017C0.309911 8.8744 0.448506 8.74399 0.611171 8.6488Z" fill="#57595C"/>
</svg>
