<svg width="166" height="40" viewBox="0 0 166 40" fill="none" xmlns="http://www.w3.org/2000/svg">
<path d="M58.32 35V5.92H75.76V10.04H64.04V30.88H76.4V35H58.32ZM65.56 21.76C65.7333 21.1733 65.98 20.5667 66.3 19.94C66.6333 19.3133 67.0667 18.7867 67.6 18.36C68.1333 17.9333 68.7867 17.72 69.56 17.72H74.4V21.76H65.56ZM92.3956 35C91.3823 33.3333 90.329 31.6667 89.2356 30C88.1556 28.32 87.0623 26.6533 85.9556 25L78.9556 14.32H85.3156L88.4356 20.12L88.6756 20.96L88.9956 20.12L92.1556 14.32H98.2356L91.3956 24.76L98.6356 35H92.3956ZM78.5956 35L84.7556 26.2C85.1023 26.6267 85.449 27.1733 85.7956 27.84C86.1556 28.4933 86.389 29.2067 86.4956 29.98C86.6156 30.7533 86.489 31.52 86.1156 32.28L84.6356 35H78.5956ZM109.503 35.52C107.569 35.52 105.916 35.0467 104.543 34.1C103.183 33.14 102.143 31.8333 101.423 30.18C100.703 28.5133 100.343 26.6267 100.343 24.52C100.343 23.1067 100.583 21.7667 101.063 20.5C101.543 19.2333 102.196 18.1133 103.023 17.14C103.849 16.1533 104.789 15.38 105.843 14.82C106.896 14.2467 107.996 13.96 109.143 13.96C109.823 13.96 110.489 14.0067 111.143 14.1C111.809 14.18 112.663 14.3733 113.703 14.68C113.343 15.6 112.916 16.3467 112.423 16.92C111.943 17.4933 111.369 17.8133 110.703 17.88C109.609 17.9467 108.736 18.2733 108.083 18.86C107.443 19.4333 106.976 20.2067 106.683 21.18C106.403 22.1533 106.263 23.2667 106.263 24.52C106.263 25.76 106.429 26.9 106.763 27.94C107.096 28.98 107.576 29.82 108.203 30.46C108.843 31.0867 109.609 31.4 110.503 31.4C111.263 31.4 112.016 31.1733 112.763 30.72C113.509 30.2667 114.303 29.56 115.143 28.6V4.68H120.703V29.96C120.703 30.6933 120.749 31.48 120.843 32.32C120.936 33.16 121.089 34.0533 121.303 35H117.023C116.689 34.8133 116.409 34.5467 116.183 34.2C115.956 33.8533 115.769 33.4933 115.623 33.12L115.423 32.2L114.743 33.08C113.703 34.0133 112.763 34.6533 111.923 35C111.096 35.3467 110.289 35.52 109.503 35.52ZM135.908 35.52C134.028 35.52 132.275 35.1 130.648 34.26C129.021 33.4067 127.701 32.1733 126.688 30.56C125.688 28.9333 125.188 26.96 125.188 24.64C125.188 22.76 125.521 21.14 126.188 19.78C126.868 18.4067 127.748 17.28 128.828 16.4C129.908 15.52 131.068 14.8667 132.308 14.44C133.561 14.0133 134.761 13.8 135.908 13.8C138.028 13.8 139.888 14.26 141.488 15.18C143.101 16.1 144.361 17.38 145.268 19.02C146.175 20.6467 146.628 22.52 146.628 24.64C146.628 26.3333 146.321 27.8533 145.708 29.2C145.095 30.5467 144.275 31.6933 143.248 32.64C142.221 33.5733 141.068 34.2867 139.788 34.78C138.521 35.2733 137.228 35.52 135.908 35.52ZM135.908 31.44C136.948 31.44 137.821 31.1333 138.528 30.52C139.235 29.9067 139.768 29.0867 140.128 28.06C140.488 27.0333 140.668 25.8933 140.668 24.64C140.668 23.4 140.488 22.2667 140.128 21.24C139.768 20.2133 139.235 19.4 138.528 18.8C137.821 18.1867 136.948 17.88 135.908 17.88C134.868 17.88 133.988 18.1867 133.268 18.8C132.561 19.4 132.021 20.2133 131.648 21.24C131.288 22.2667 131.108 23.4 131.108 24.64C131.108 26.64 131.541 28.2733 132.408 29.54C133.288 30.8067 134.455 31.44 135.908 31.44ZM157.682 35.4C156.642 35.4 155.456 35.3 154.122 35.1C152.789 34.9133 151.229 34.4533 149.442 33.72L150.722 30C151.962 30.48 153.069 30.8133 154.042 31C155.016 31.1867 155.922 31.28 156.762 31.28C157.749 31.28 158.469 31.0733 158.922 30.66C159.376 30.2333 159.602 29.7733 159.602 29.28C159.602 28.68 159.369 28.18 158.902 27.78C158.436 27.3667 157.836 27 157.102 26.68C156.369 26.3467 155.589 26 154.762 25.64C153.936 25.28 153.156 24.86 152.422 24.38C151.689 23.8867 151.089 23.2867 150.622 22.58C150.156 21.86 149.922 20.9733 149.922 19.92C149.922 19.0667 150.156 18.18 150.622 17.26C151.102 16.34 151.882 15.56 152.962 14.92C154.042 14.28 155.496 13.96 157.322 13.96C158.229 13.96 159.156 14.0267 160.102 14.16C161.049 14.2933 162.162 14.5733 163.442 15L162.162 18.6C161.122 18.32 160.282 18.14 159.642 18.06C159.016 17.9667 158.362 17.92 157.682 17.92C156.922 17.92 156.316 18.0733 155.862 18.38C155.422 18.6867 155.202 19.12 155.202 19.68C155.202 20.24 155.436 20.7267 155.902 21.14C156.369 21.54 156.969 21.9133 157.702 22.26C158.436 22.5933 159.216 22.9533 160.042 23.34C160.869 23.7133 161.649 24.1467 162.382 24.64C163.116 25.1333 163.716 25.74 164.182 26.46C164.649 27.1667 164.882 28.04 164.882 29.08C164.882 30.3733 164.542 31.4933 163.862 32.44C163.182 33.3867 162.289 34.12 161.182 34.64C160.089 35.1467 158.922 35.4 157.682 35.4Z" fill="white"/>
<path d="M28.4404 10.8273C29.2923 10.0133 29.8165 8.82353 29.8165 7.57116C29.8165 5.0038 27.654 3 25.0328 3C23.329 3 21.8873 3.81404 21.0354 5.06641C20.7733 5.31689 1.57274 27.8596 1.37615 28.1101C0.524246 28.9867 0 30.1138 0 31.3662C0 33.9336 2.16252 35.9374 4.78375 35.9374C6.48755 35.9374 7.92923 35.1233 8.78113 33.871C9.04325 33.6831 28.2438 11.1404 28.4404 10.8273Z" fill="url(#paint0_linear_26_5)"/>
<path d="M39.5151 21.5351C40.367 20.7211 40.9568 19.5313 40.9568 18.279C40.9568 15.7116 38.7942 13.7078 36.173 13.7078C34.4692 13.7078 33.0275 14.5218 32.1756 15.7742C31.9135 16.0247 21.8873 27.8596 21.6907 28.1101C20.8388 28.9241 20.249 30.1139 20.249 31.3662C20.249 33.9336 22.4115 35.9374 25.0328 35.9374C26.7366 35.9374 28.1782 35.1234 29.0301 33.871C29.2267 33.6831 39.3185 21.8482 39.5151 21.5351Z" fill="url(#paint1_linear_26_5)"/>
<path d="M45.2164 12.1423C47.8584 12.1423 50.0001 10.0957 50.0001 7.57116C50.0001 5.04658 47.8584 3 45.2164 3C42.5744 3 40.4326 5.04658 40.4326 7.57116C40.4326 10.0957 42.5744 12.1423 45.2164 12.1423Z" fill="#FFE815"/>
<defs>
<linearGradient id="paint0_linear_26_5" x1="14.9083" y1="3" x2="37" y2="3" gradientUnits="userSpaceOnUse">
<stop stop-color="#0057FC"/>
<stop offset="1" stop-color="#71A2FF"/>
</linearGradient>
<linearGradient id="paint1_linear_26_5" x1="24.5" y1="32" x2="31" y2="5" gradientUnits="userSpaceOnUse">
<stop stop-color="#FFE815"/>
<stop offset="1" stop-color="#FFF387"/>
</linearGradient>
</defs>
</svg>
